<svg xmlns="http://www.w3.org/2000/svg" width="410" height="404" viewBox="0 0 410 404" fill="none">
  <path d="M399.641 59.5246L215.643 388.545C211.844 395.338 202.084 395.378 198.228 388.618L10.5817 59.5563C6.38087 52.1896 12.6802 43.2665 21.0281 44.7586L205.223 77.6824C206.398 77.8924 207.601 77.8904 208.776 77.6763L389.119 44.8058C397.439 43.2894 403.768 52.1434 399.641 59.5246Z" fill="url(#paint0_linear_1_40)"/>
  <path d="M292.965 1.5744L156.801 28.2552C155.563 28.496 154.399 29.0034 153.42 29.7389C152.44 30.4744 151.667 31.4191 151.164 32.4938L97.1113 147.594C96.3703 149.164 96.2727 150.942 96.8342 152.582C97.3957 154.221 98.5755 155.576 100.111 156.364L180.391 197.89C181.862 198.643 183.535 198.853 185.142 198.493C186.749 198.133 188.198 197.224 189.236 195.911L198.597 184.152C199.559 182.915 200.892 182.007 202.397 181.561C203.903 181.116 205.497 181.157 206.978 181.679L252.313 197.171C253.804 197.695 255.383 197.698 256.876 197.18C258.37 196.661 259.696 195.646 260.665 194.288L332.328 94.2126C333.221 92.9496 333.677 91.4074 333.62 89.8384C333.562 88.2694 332.993 86.7641 331.999 85.5396L308.272 55.6326C307.424 54.5836 306.938 53.2893 306.884 51.9411C306.829 50.5929 307.209 49.2664 307.964 48.1296L315.236 37.4098C316.188 36.0117 316.583 34.2844 316.333 32.5982C316.082 30.912 315.208 29.3867 313.887 28.2992L297.983 15.1182C296.878 14.2147 295.528 13.6618 294.1 13.5371C292.671 13.4124 291.24 13.7223 290.001 14.4319C288.763 15.1415 287.775 16.2151 287.173 17.5084C286.571 18.8018 286.383 20.25 286.637 21.6578L292.965 1.5744Z" fill="url(#paint1_linear_1_40)"/>
  <defs>
    <linearGradient id="paint0_linear_1_40" x1="6.00017" y1="32.9999" x2="235" y2="344" gradientUnits="userSpaceOnUse">
      <stop stop-color="#41D1FF"/>
      <stop offset="1" stop-color="#BD34FE"/>
    </linearGradient>
    <linearGradient id="paint1_linear_1_40" x1="194.651" y1="8.81818" x2="236.076" y2="292.989" gradientUnits="userSpaceOnUse">
      <stop stop-color="#FFEA83"/>
      <stop offset="0.0833333" stop-color="#FFDD35"/>
      <stop offset="1" stop-color="#FFA800"/>
    </linearGradient>
  </defs>
</svg>
